<?xml version="1.0" encoding="iso-8859-1"?>
<!-- Generator: Adobe Illustrator 19.0.0, SVG Export Plug-In . SVG Version: 6.00 Build 0)  -->
<svg version="1.1" id="Layer_1" xmlns="http://www.w3.org/2000/svg" xmlns:xlink="http://www.w3.org/1999/xlink" x="0px" y="0px"
	 viewBox="0 0 512 512" style="enable-background:new 0 0 512 512;" fill="#834902" xml:space="preserve">
<g>
	<g>
		<g>
			<path d="M149.333,358.426c-5.888,0-10.667,4.779-10.667,10.667c0,5.888,4.779,10.667,10.667,10.667S160,374.981,160,369.093
				S155.221,358.426,149.333,358.426z"/>
			<path d="M405.333,123.76c-5.888,0-10.667,4.779-10.667,10.667s4.779,10.667,10.667,10.667c5.888,0,10.667-4.779,10.667-10.667
				S411.221,123.76,405.333,123.76z"/>
			<path d="M480.235,113.114h-18.965c5.291-7.616,12.416-18.88,17.109-26.389c1.792-2.901,2.112-6.485,0.832-9.643
				s-3.989-5.504-7.296-6.336c-29.739-7.445-61.056,1.835-81.813,24.192c-3.712,4.011-9.621,10.283-17.152,18.155H74.667
				C33.493,113.093,0,146.586,0,187.76c0,5.888,4.779,10.667,10.667,10.667h256c5.888,0,10.581-4.437,10.603-10.325
				c0.149-0.299,3.605-5.739,30.144-9.664c-60.373,57.728-142.784,129.6-217.451,170.923c-13.163,7.296-22.336,19.947-25.088,34.709
				c-2.773,14.784,1.173,29.888,10.816,41.451l0.043,0.064c9.899,11.883,24.192,18.197,38.699,18.197
				c8.512,0,17.088-2.176,24.896-6.699c65.003-37.397,189.12-136.853,280.256-262.08c11.243,0.256,22.101,0.576,31.915,0.853
				c10.752,0.341,20.352,0.64,28.181,0.768h0.555c8.384,0,16.277-3.221,22.272-9.088c6.123-6.037,9.493-14.08,9.493-22.656
				C512,127.365,497.749,113.114,480.235,113.114z M258.859,177.093H22.4c4.971-24.32,26.496-42.667,52.267-42.667h277.483
				c-6.315,6.4-13.035,13.12-20.096,20.075C300.032,156.528,268.352,161.178,258.859,177.093z M432.171,118.106
				c-8.747,13.952-17.728,27.371-26.709,39.851c-0.043,0.043-0.021,0.128-0.064,0.171
				C316.096,282.65,192.853,381.701,128.683,418.629c-12.16,6.997-27.52,4.181-36.565-6.699l-0.043-0.064
				c-5.547-6.677-7.829-15.36-6.229-23.851c1.6-8.491,6.869-15.787,14.464-19.989c127.701-70.677,276.843-227.776,305.429-258.56
				c11.904-12.821,28.48-19.861,45.589-19.904c-5.099,7.872-9.557,14.507-10.88,16c-0.619,0.619-1.152,1.28-1.6,2.027
				c-2.133,3.541-4.459,6.976-6.656,10.496C432.192,118.106,432.171,118.106,432.171,118.106z M487.552,152.282
				c-2.027,1.984-4.672,2.645-7.509,2.987c-7.744-0.128-17.259-0.427-27.904-0.747c-5.675-0.149-11.669-0.341-17.899-0.512
				c0.064-0.085,0.107-0.171,0.171-0.256c4.309-6.336,8.469-12.757,12.587-19.2c0.043-0.043,0.064-0.107,0.107-0.149h33.131
				c5.76,0,10.432,4.672,10.432,10.432C490.667,147.674,489.557,150.298,487.552,152.282z"/>
			<path d="M298.667,241.093c-5.888,0-10.667,4.779-10.667,10.667c0,5.888,4.779,10.667,10.667,10.667s10.667-4.779,10.667-10.667
				C309.333,245.872,304.555,241.093,298.667,241.093z"/>
		</g>
	</g>
</g>
<g>
</g>
<g>
</g>
<g>
</g>
<g>
</g>
<g>
</g>
<g>
</g>
<g>
</g>
<g>
</g>
<g>
</g>
<g>
</g>
<g>
</g>
<g>
</g>
<g>
</g>
<g>
</g>
<g>
</g>
</svg>
