<?xml version="1.0" encoding="iso-8859-1"?>
<!-- Generator: Adobe Illustrator 19.0.0, SVG Export Plug-In . SVG Version: 6.00 Build 0)  -->
<svg version="1.1" id="Layer_1" xmlns="http://www.w3.org/2000/svg" xmlns:xlink="http://www.w3.org/1999/xlink" x="0px" y="0px"
	 viewBox="0 0 512.002 512.002" style="enable-background:new 0 0 512.002 512.002;" fill="#834902" xml:space="preserve">
<g>
	<g>
		<circle cx="120.546" cy="196.679" r="10.125"/>
	</g>
</g>
<g>
	<g>
		<path d="M462.821,186.065c-6.373-7.315-15.79-11.51-25.839-11.51h-81.865v-17.333c0-25.382-20.649-46.031-46.031-46.031h-7.935
			v-1.295c0-18.137-14.381-32.971-32.338-33.716V58.93c7.515-1.755,14.051-4.292,19.537-7.62
			c10.202-6.189,14.618-13.668,16.527-18.851c4.261-11.572-0.222-24.829-10.204-30.183C291.856,0.766,288.849,0,285.736,0
			c-6.77,0-13.134,3.755-16.974,9.91c-1.938,1.268-9.362,5.096-28.27,5.096h-47.113c-23.932,0-38.798,16.364-38.798,42.707
			c0,12.912,9.305,23.418,20.743,23.418c10.19,0,18.688-8.338,20.42-19.289h22.63v14.337c-17.957,0.745-32.337,15.58-32.337,33.716
			v1.295h-7.936c-25.382,0-46.031,20.649-46.031,46.031v0.683H102.41c-13.16,0-23.867,10.706-23.867,23.865v45.11
			c-7.192,6.147-11.765,15.275-11.765,25.455v14.871c-13.638,9.745-22.934,25.302-24.116,43.147
			c-0.521,7.849-0.879,16.147-1.065,24.664c-0.094,4.31,3.323,7.88,7.633,7.975c4.304,0.104,7.88-3.323,7.975-7.633
			c0.181-8.287,0.529-16.352,1.035-23.972c1.044-15.759,10.756-29.072,24.258-35.372c0.095-0.044,0.187-0.089,0.282-0.132
			c5.401-2.453,11.376-3.772,17.312-3.772h40.906c5.947,0,11.897,1.317,17.312,3.772c0.095,0.043,0.187,0.088,0.282,0.132
			c13.654,6.33,23.261,20.338,24.258,35.371c0.786,11.853,1.184,24.026,1.184,36.182c0,5.747-0.156,11.487-0.278,17.231
			c-0.006,0.202-0.014,0.404-0.02,0.606c-0.067,2.027-5.716,7.632-6.895,9.732c-1.936,3.446-3.505,7.081-4.668,10.858
			c-2.641,8.578-3.203,17.629-3.358,26.551c-0.231,13.362,1.102,26.779,4.05,39.817c0.012,0.056,0.023,0.112,0.035,0.169
			c-4.929,13.558-17.608,22.534-32.147,22.534h-40.417c-16.067,0-30.155-11.461-33.5-27.251c-5.306-25.045-8.49-52.52-9.463-81.663
			c-0.144-4.309-3.771-7.69-8.062-7.542c-4.309,0.144-7.685,3.753-7.542,8.062c1.003,30.054,4.297,58.443,9.793,84.378
			c4.864,22.962,25.377,39.628,48.773,39.628h40.418c15.197,0,28.996-6.727,38.228-17.816c4.927,13.128,11.566,25.31,19.78,36.071
			c1.476,1.935,3.771,3.069,6.204,3.069H352.25c2.433,0,4.728-1.135,6.204-3.069c2.375-3.112,4.619-6.345,6.728-9.683h67.107
			c4.311,0,7.806-3.495,7.806-7.806v-64.437l18.526-133.862c0.591-4.27-2.392-8.212-6.662-8.803
			c-4.281-0.592-8.212,2.392-8.803,6.662l-14.821,107.084h-40.801c-0.529-5.127-1.654-10.19-3.465-15.019
			c-5.558-14.818-16.936-26.507-31.209-32.61c0,0-0.284-2.051-0.284-2.055c0,0-19.437-140.441-19.437-140.443
			c-0.07-0.504-0.109-1.006-0.125-1.507c-0.001-0.026-0.003-0.053-0.004-0.08c-0.145-5.048,2.567-9.601,6.514-12.588
			c3.168-2.396,7.33-3.619,11.284-3.619h86.17c5.533,0,10.661,2.243,14.067,6.154c2.902,3.331,4.181,7.466,3.603,11.642
			l-7.169,51.814c-0.591,4.27,2.392,8.212,6.662,8.803c4.275,0.591,8.212-2.393,8.803-6.662l7.172-51.817
			C471.324,201.387,468.732,192.85,462.821,186.065z M193.379,46.229v0.001c-3.601,0-8.069,0.413-10.658,3.254
			c-2.031,2.227-2.267,5.359-2.267,8.23c0,4.6-2.704,7.806-5.131,7.806s-5.131-3.206-5.131-7.806
			c0-23.575,14.527-27.095,23.186-27.095c0,0,47.112,0,47.113,0c7.277,0,14.844-0.458,22.068-2.025
			c6.225-1.351,13.199-3.349,17.783-8.035c1.672-1.709,2.481-4.946,5.393-4.946c0.517,0,1.026,0.138,1.557,0.423
			c2.757,1.478,4.597,6.509,2.932,11.03c-1.339,3.638-7.153,13.934-30.302,17.732c-0.056,0.008-0.111,0.009-0.168,0.018
			c-6.359,1.041-12.824,1.414-19.263,1.414H226.18H193.379z M253.2,61.328v14.815h-19.214c0,0,0-14.298,0-14.301
			C234.006,62.183,253.2,61.488,253.2,61.328z M219.789,91.755h6.392h34.826h6.393c10.002,0,18.14,8.138,18.14,18.14v1.295H201.65
			v-1.295h-0.001C201.649,99.893,209.786,91.755,219.789,91.755z M94.157,181.807c0-0.014,0-0.026,0-0.039
			c0-4.551,3.703-8.254,8.255-8.254h36.27c0.175,0,0.346,0.016,0.517,0.026c0.035,0.003,0.069,0.01,0.103,0.013
			c9.146,0.67,7.633,11.317,7.633,17.724c0,7.771,0,15.541,0,23.312c0,1.606,0,3.212,0,4.818c-2.014-0.373-4.063-0.56-6.11-0.56
			c0,0-40.544,0-40.557,0c-1.892,0-4.101,0.549-6.086,0.487C93.574,206.907,94.157,194.271,94.157,181.807z M158.698,259.29
			c-0.003-2.266-15.496-2.793-17.701-2.793h-40.905c-5.99,0-12.001,0.948-17.701,2.794c0,0,0-6.954,0-6.958
			c0-9.651,8.224-17.876,17.876-17.876h40.557c5.867,0,11.539,3.045,14.823,7.895C159.076,247.419,158.698,253.46,158.698,259.29z
			 M377.222,476.271c0.117-0.386,0.21-0.692,0.276-0.879c2.714-7.664,5.13-15.457,6.905-23.396
			c2.801-12.538,4.167-25.448,4.017-38.297h36.066v12.768v57.168c0,0-50.757,0-50.777,0
			C375.053,483.636,376.535,478.55,377.222,476.271z M368.845,387.087h-36.864c-4.311,0-7.806,3.495-7.806,7.806
			s3.495,7.806,7.806,7.806h40.302c0.027,0.331,0.052,0.666,0.077,1c2.433,32.343-5.068,66.058-24.048,92.69H208.909
			c-9.567-13.423-16.501-29.172-20.507-46.172c-3.651-15.495-4.786-31.657-3.467-47.519h115.822c4.311,0,7.806-3.495,7.806-7.806
			s-3.495-7.806-7.806-7.806h-112.4c2.024-4.791,4.943-9.185,8.66-12.982c7.792-7.96,18.919-12.699,30.186-12.699
			c0,0,102.808,0,102.812,0c3.571,0,7.088,0.465,10.476,1.349C352.991,366.013,363.725,374.945,368.845,387.087z M339.504,176.408
			c0-0.048-9.313,4.829-10.196,5.533c-15.317,12.215-11.369,30.054-9.038,46.897l16.237,117.324
			c-0.052-0.006-0.104-0.007-0.156-0.013c-0.89-0.097-1.786-0.173-2.686-0.229c-0.198-0.012-0.394-0.029-0.592-0.04
			c-1.014-0.053-2.032-0.086-3.057-0.086H227.204c-4.947,0-9.893,0.643-14.679,1.888c-2.331,0.606-4.626,1.355-6.864,2.245
			c-0.817,0.325-6.031,2.135-6.039,2.82c0.017-1.736,0.024-3.464,0.024-5.181c0-12.5-0.41-25.021-1.219-37.215
			c-0.589-8.889-3.309-17.657-7.803-25.345c-2.04-3.491-4.446-6.766-7.169-9.755c-1.408-1.546-2.901-3.015-4.469-4.397
			c-0.586-0.517-4.675-3.157-4.675-3.709c0,0,0-14.81,0-14.811c0-9.632-4.35-19.177-11.765-25.483v-45.081
			c0-0.559-0.026-1.111-0.065-1.659c-0.008-0.113-0.017-0.228-0.026-0.341c-0.76-9.108-6.653-16.777-14.774-20.097v-2.451
			c0-16.773,13.646-30.419,30.419-30.419h15.742h99.501h15.741c16.773,0,30.419,13.646,30.419,30.419
			C339.504,157.221,339.504,176.407,339.504,176.408z"/>
	</g>
</g>
<g>
</g>
<g>
</g>
<g>
</g>
<g>
</g>
<g>
</g>
<g>
</g>
<g>
</g>
<g>
</g>
<g>
</g>
<g>
</g>
<g>
</g>
<g>
</g>
<g>
</g>
<g>
</g>
<g>
</g>
</svg>
